{
  "accessors": [
    {
      "bufferView": 2,
      "componentType": 5126,
      "count": 518,
      "max": [
        3.2735025882720947,
        87.249992370605469,
        237.19966125488281
      ],
      "min": [
        -3.2735025882720947,
        56.111427307128906,
        -222.17047119140625
      ],
      "type": "VEC3"
    },
    {
      "bufferView": 2,
      "byteOffset": 6216,
      "componentType": 5126,
      "count": 518,
      "max": [
        1,
        1,
        0.90759539604187012
      ],
      "min": [
        -1,
        -1,
        -1
      ],
      "type": "VEC3"
    },
    {
      "bufferView": 1,
      "componentType": 5126,
      "count": 518,
      "max": [
        0.087958827614784241,
        0.59782648086547852
      ],
      "min": [
        0.028787091374397278,
        0.5540541410446167
      ],
      "type": "VEC2"
    },
    {
      "bufferView": 0,
      "componentType": 5125,
      "count": 2496,
      "max": [
        517
      ],
      "min": [
        0
      ],
      "type": "SCALAR"
    },
    {
      "bufferView": 2,
      "byteOffset": 12432,
      "componentType": 5126,
      "count": 200,
      "max": [
        84.708816528320312,
        79.748313903808594,
        216.21229553222656
      ],
      "min": [
        -84.708816528320312,
        13.831915855407715,
        -219.64505004882812
      ],
      "type": "VEC3"
    },
    {
      "bufferView": 2,
      "byteOffset": 14832,
      "componentType": 5126,
      "count": 200,
      "max": [
        1,
        1,
        1
      ],
      "min": [
        -1,
        -1,
        -1
      ],
      "type": "VEC3"
    },
    {
      "bufferView": 1,
      "byteOffset": 4144,
      "componentType": 5126,
      "count": 200,
      "max": [
        -0.11806570738554001,
        1.4600889682769775
      ],
      "min": [
        -0.68193411827087402,
        0.0078740315511822701
      ],
      "type": "VEC2"
    },
    {
      "bufferView": 0,
      "byteOffset": 9984,
      "componentType": 5125,
      "count": 432,
      "max": [
        199
      ],
      "min": [
        0
      ],
      "type": "SCALAR"
    },
    {
      "bufferView": 2,
      "byteOffset": 17232,
      "componentType": 5126,
      "count": 3365,
      "max": [
        86.432586669921875,
        127.41018676757812,
        227.66653442382812
      ],
      "min": [
        -86.374359130859375,
        43.291305541992188,
        -225.01019287109375
      ],
      "type": "VEC3"
    },
    {
      "bufferView": 2,
      "byteOffset": 57612,
      "componentType": 5126,
      "count": 3365,
      "max": [
        0.9999956488609314,
        0.99915856122970581,
        0.99889814853668213
      ],
      "min": [
        -0.99999988079071045,
        -0.99999904632568359,
        -0.98880809545516968
      ],
      "type": "VEC3"
    },
    {
      "bufferView": 1,
      "byteOffset": 5744,
      "componentType": 5126,
      "count": 3365,
      "max": [
        1.0003937482833862,
        0.99212592840194702
      ],
      "min": [
        0.0077148298732936382,
        0.0078740464523434639
      ],
      "type": "VEC2"
    },
    {
      "bufferView": 0,
      "byteOffset": 11712,
      "componentType": 5125,
      "count": 17982,
      "max": [
        3364
      ],
      "min": [
        0
      ],
      "type": "SCALAR"
    },
    {
      "bufferView": 2,
      "byteOffset": 97992,
      "componentType": 5126,
      "count": 39728,
      "max": [
        97.975341796875,
        66.275413513183594,
        189.43020629882812
      ],
      "min": [
        -97.97528076171875,
        0.0072479248046875,
        -160.25469970703125
      ],
      "type": "VEC3"
    },
    {
      "bufferView": 2,
      "byteOffset": 574728,
      "componentType": 5126,
      "count": 39728,
      "max": [
        1,
        1,
        1
      ],
      "min": [
        -1,
        -1,
        -1
      ],
      "type": "VEC3"
    },
    {
      "bufferView": 1,
      "byteOffset": 32664,
      "componentType": 5126,
      "count": 39728,
      "max": [
        1.0000801086425781,
        1.0000032186508179
      ],
      "min": [
        -0.00034905597567558289,
        -2.428889274597168e-06
      ],
      "type": "VEC2"
    },
    {
      "bufferView": 1,
      "byteOffset": 350488,
      "componentType": 5126,
      "count": 39728,
      "max": [
        1.0000801086425781,
        1.0000032186508179
      ],
      "min": [
        -0.00034905597567558289,
        -2.428889274597168e-06
      ],
      "type": "VEC2"
    },
    {
      "bufferView": 1,
      "byteOffset": 668312,
      "componentType": 5126,
      "count": 39728,
      "max": [
        1.0000801086425781,
        1.0000032186508179
      ],
      "min": [
        -0.00034905597567558289,
        -2.428889274597168e-06
      ],
      "type": "VEC2"
    },
    {
      "bufferView": 1,
      "byteOffset": 986136,
      "componentType": 5126,
      "count": 39728,
      "max": [
        1.0000801086425781,
        1.0000032186508179
      ],
      "min": [
        -0.00034905597567558289,
        -2.428889274597168e-06
      ],
      "type": "VEC2"
    },
    {
      "bufferView": 0,
      "byteOffset": 83640,
      "componentType": 5125,
      "count": 175440,
      "max": [
        39727
      ],
      "min": [
        0
      ],
      "type": "SCALAR"
    },
    {
      "bufferView": 2,
      "byteOffset": 1051464,
      "componentType": 5126,
      "count": 47499,
      "max": [
        105.99142456054688,
        137.12222290039062,
        249.99998474121094
      ],
      "min": [
        -105.99142456054688,
        4.1519374847412109,
        -253.15138244628906
      ],
      "type": "VEC3"
    },
    {
      "bufferView": 2,
      "byteOffset": 1621452,
      "componentType": 5126,
      "count": 47499,
      "max": [
        1,
        1,
        1
      ],
      "min": [
        -1,
        -1,
        -1
      ],
      "type": "VEC3"
    },
    {
      "bufferView": 3,
      "componentType": 5126,
      "count": 47499,
      "max": [
        0,
        0,
        0,
        1
      ],
      "min": [
        0,
        0,
        0,
        0
      ],
      "type": "VEC4"
    },
    {
      "bufferView": 1,
      "byteOffset": 1303960,
      "componentType": 5126,
      "count": 47499,
      "max": [
        0.96022778749465942,
        0.9725034236907959
      ],
      "min": [
        0.0064001157879829407,
        0.0098892152309417725
      ],
      "type": "VEC2"
    },
    {
      "bufferView": 0,
      "byteOffset": 785400,
      "componentType": 5125,
      "count": 235380,
      "max": [
        47498
      ],
      "min": [
        0
      ],
      "type": "SCALAR"
    }
  ],
  "asset": {
    "extras": {
      "author": "GRIP420 (https://sketchfab.com/GRIP420)",
      "license": "CC-BY-4.0 (http://creativecommons.org/licenses/by/4.0/)",
      "source": "https://sketchfab.com/3d-models/bmw-m4-bodykit-a3b6fec76e614533b8156d9dc4b6fb4d",
      "title": "Bmw M4 Bodykit"
    },
    "generator": "Sketchfab-8.16.0",
    "version": "2.0"
  },
  "bufferViews": [
    {
      "buffer": 0,
      "byteLength": 1726920,
      "byteOffset": 0,
      "name": "floatBufferViews",
      "target": 34963
    },
    {
      "buffer": 0,
      "byteLength": 1683952,
      "byteOffset": 1726920,
      "byteStride": 8,
      "name": "floatBufferViews",
      "target": 34962
    },
    {
      "buffer": 0,
      "byteLength": 2191440,
      "byteOffset": 3410872,
      "byteStride": 12,
      "name": "floatBufferViews",
      "target": 34962
    },
    {
      "buffer": 0,
      "byteLength": 759984,
      "byteOffset": 5602312,
      "byteStride": 16,
      "name": "floatBufferViews",
      "target": 34962
    }
  ],
  "buffers": [
    {
      "byteLength": 6362296,
      "uri": "scene.bin"
    }
  ],
  "images": [
    {
      "uri": "textures/Color_Black_baseColor.png"
    },
    {
      "uri": "textures/Wheel_PBR3_baseColor.png"
    },
    {
      "uri": "textures/Wheel_PBR3_metallicRoughness.png"
    }
  ],
  "materials": [
    {
      "doubleSided": true,
      "emissiveFactor": [
        0,
        0,
        0
      ],
      "name": "Color_Black",
      "pbrMetallicRoughness": {
        "baseColorFactor": [
          1,
          1,
          1,
          1
        ],
        "baseColorTexture": {
          "index": 0,
          "texCoord": 0
        },
        "metallicFactor": 0.35000000000000003,
        "roughnessFactor": 0.16
      }
    },
    {
      "doubleSided": true,
      "emissiveFactor": [
        0,
        0,
        0
      ],
      "name": "Color_Blue",
      "pbrMetallicRoughness": {
        "baseColorFactor": [
          0,
          0,
          0,
          1
        ],
        "metallicFactor": 1,
        "roughnessFactor": 0.42999999999999999
      }
    },
    {
      "alphaMode": "BLEND",
      "doubleSided": true,
      "emissiveFactor": [
        0,
        0,
        0
      ],
      "name": "Glass_Mat_PBR",
      "pbrMetallicRoughness": {
        "baseColorFactor": [
          0.15281078508528564,
          0.34349418394643316,
          0.54439786585365857,
          0.81878810975609762
        ],
        "metallicFactor": 1,
        "roughnessFactor": 0.15072408536585369
      }
    },
    {
      "doubleSided": true,
      "emissiveFactor": [
        0,
        0,
        0
      ],
      "name": "Wheel_PBR3",
      "pbrMetallicRoughness": {
        "baseColorFactor": [
          1,
          1,
          1,
          1
        ],
        "baseColorTexture": {
          "index": 1,
          "texCoord": 0
        },
        "metallicFactor": 1,
        "metallicRoughnessTexture": {
          "index": 2,
          "texCoord": 0
        },
        "roughnessFactor": 1
      }
    }
  ],
  "meshes": [
    {
      "name": "BMW_M4_Logo_Color_Black_0",
      "primitives": [
        {
          "attributes": {
            "NORMAL": 1,
            "POSITION": 0,
            "TEXCOORD_0": 2
          },
          "indices": 3,
          "material": 0,
          "mode": 4
        }
      ]
    },
    {
      "name": "BMW_M4_Inner_Color_Blue_0",
      "primitives": [
        {
          "attributes": {
            "NORMAL": 5,
            "POSITION": 4,
            "TEXCOORD_0": 6
          },
          "indices": 7,
          "material": 1,
          "mode": 4
        }
      ]
    },
    {
      "name": "BMW_M4_Windows_Glass_Mat_PBR_0",
      "primitives": [
        {
          "attributes": {
            "NORMAL": 9,
            "POSITION": 8,
            "TEXCOORD_0": 10
          },
          "indices": 11,
          "material": 2,
          "mode": 4
        }
      ]
    },
    {
      "name": "Wheel_Rays_ze40_volk_racing_Msh_Wheel_PBR3_0",
      "primitives": [
        {
          "attributes": {
            "NORMAL": 13,
            "POSITION": 12,
            "TEXCOORD_0": 14,
            "TEXCOORD_1": 15,
            "TEXCOORD_2": 16,
            "TEXCOORD_3": 17
          },
          "indices": 18,
          "material": 3,
          "mode": 4
        }
      ]
    },
    {
      "name": "BMW_M4_BodyKit5_Color_Black_0",
      "primitives": [
        {
          "attributes": {
            "COLOR_0": 21,
            "NORMAL": 20,
            "POSITION": 19,
            "TEXCOORD_0": 22
          },
          "indices": 23,
          "material": 0,
          "mode": 4
        }
      ]
    }
  ],
  "nodes": [
    {
      "children": [
        1
      ],
      "name": "RootNode (gltf orientation matrix)",
      "rotation": [
        -0.70710678118654746,
        -0,
        -0,
        0.70710678118654757
      ]
    },
    {
      "children": [
        2
      ],
      "matrix": [
        0.0070692286349445244,
        -0.00020589741040881286,
        1.5943791658632785e-18,
        0,
        -0.00020589741040881286,
        -0.0070692286349445244,
        2.3432531054155647e-18,
        0,
        1.5254829109382886e-18,
        -2.3886778148761149e-18,
        -0.0070722266100347042,
        0,
        -0.071086198091506958,
        -4.8823456764221191,
        -143.89659118652344,
        1
      ],
      "name": "RootNode (model correction matrix)"
    },
    {
      "children": [
        3
      ],
      "matrix": [
        1,
        0,
        0,
        0,
        0,
        -1,
        0,
        0,
        0,
        0,
        -1,
        0,
        0,
        0,
        0,
        1
      ],
      "name": "7ead8f9ec05649b59b4cce62460710ce.fbx"
    },
    {
      "children": [
        4,
        6,
        8,
        10,
        12
      ],
      "name": "RootNode"
    },
    {
      "children": [
        5
      ],
      "matrix": [
        1,
        0,
        0,
        0,
        0,
        2.2204460492503131e-16,
        1,
        0,
        0,
        -1,
        2.2204460492503131e-16,
        0,
        0,
        0.5814092755317688,
        0,
        1
      ],
      "name": "BMW_M4_Logo"
    },
    {
      "mesh": 0,
      "name": "BMW_M4_Logo_Color_Black_0"
    },
    {
      "children": [
        7
      ],
      "matrix": [
        1,
        0,
        0,
        0,
        0,
        2.2204460492503131e-16,
        1,
        0,
        0,
        -1,
        2.2204460492503131e-16,
        0,
        0,
        0,
        0,
        1
      ],
      "name": "BMW_M4_Inner"
    },
    {
      "mesh": 1,
      "name": "BMW_M4_Inner_Color_Blue_0"
    },
    {
      "children": [
        9
      ],
      "matrix": [
        1,
        0,
        0,
        0,
        0,
        2.2204460492503131e-16,
        1,
        0,
        0,
        -1,
        2.2204460492503131e-16,
        0,
        0,
        0,
        0,
        1
      ],
      "name": "BMW_M4_Windows"
    },
    {
      "mesh": 2,
      "name": "BMW_M4_Windows_Glass_Mat_PBR_0"
    },
    {
      "children": [
        11
      ],
      "matrix": [
        1,
        0,
        0,
        0,
        0,
        2.2204460492503131e-16,
        1,
        0,
        0,
        -1,
        2.2204460492503131e-16,
        0,
        0,
        0,
        0,
        1
      ],
      "name": "Wheel_Rays_ze40_volk_racing_Msh"
    },
    {
      "mesh": 3,
      "name": "Wheel_Rays_ze40_volk_racing_Msh_Wheel_PBR3_0"
    },
    {
      "children": [
        13
      ],
      "matrix": [
        1,
        0,
        0,
        0,
        0,
        2.2204460492503131e-16,
        1,
        0,
        0,
        -1,
        2.2204460492503131e-16,
        0,
        0,
        0,
        0,
        1
      ],
      "name": "BMW_M4_BodyKit5"
    },
    {
      "mesh": 4,
      "name": "BMW_M4_BodyKit5_Color_Black_0"
    }
  ],
  "samplers": [
    {
      "magFilter": 9729,
      "minFilter": 9987,
      "wrapS": 10497,
      "wrapT": 10497
    }
  ],
  "scene": 0,
  "scenes": [
    {
      "name": "OSG_Scene",
      "nodes": [
        0
      ]
    }
  ],
  "textures": [
    {
      "sampler": 0,
      "source": 0
    },
    {
      "sampler": 0,
      "source": 1
    },
    {
      "sampler": 0,
      "source": 2
    }
  ]
}

