{
  "accessors": [
    {
      "bufferView": 2,
      "componentType": 5126,
      "count": 65534,
      "max": [
        13.965160369873047,
        -19.083812713623047,
        -39.149620056152344
      ],
      "min": [
        -20.183309555053711,
        -67.04168701171875,
        -53.5615234375
      ],
      "type": "VEC3"
    },
    {
      "bufferView": 2,
      "byteOffset": 786408,
      "componentType": 5126,
      "count": 65534,
      "max": [
        0.97462677955627441,
        0.99999314546585083,
        1
      ],
      "min": [
        -0.99998152256011963,
        -0.97190314531326294,
        -0.99915909767150879
      ],
      "type": "VEC3"
    },
    {
      "bufferView": 3,
      "componentType": 5126,
      "count": 65534,
      "max": [
        0.99997919797897339,
        0.99999743700027466,
        0.99958699941635132,
        1
      ],
      "min": [
        -0.9999997615814209,
        -0.93297183513641357,
        -0.99909192323684692,
        -1
      ],
      "type": "VEC4"
    },
    {
      "bufferView": 1,
      "componentType": 5126,
      "count": 65534,
      "max": [
        0.99926799535751343,
        0.97575002908706665
      ],
      "min": [
        0.00073199998587369919,
        0.0007350000087171793
      ],
      "type": "VEC2"
    },
    {
      "bufferView": 0,
      "componentType": 5125,
      "count": 361497,
      "max": [
        65533
      ],
      "min": [
        0
      ],
      "type": "SCALAR"
    },
    {
      "bufferView": 2,
      "byteOffset": 1572816,
      "componentType": 5126,
      "count": 65532,
      "max": [
        8.4981231689453125,
        -32.59527587890625,
        -39.120887756347656
      ],
      "min": [
        -15.461795806884766,
        -67.040191650390625,
        -53.328514099121094
      ],
      "type": "VEC3"
    },
    {
      "bufferView": 2,
      "byteOffset": 2359200,
      "componentType": 5126,
      "count": 65532,
      "max": [
        0.99998849630355835,
        0.9989202618598938,
        0.99999988079071045
      ],
      "min": [
        -0.99999862909317017,
        -0.99997663497924805,
        -0.99971598386764526
      ],
      "type": "VEC3"
    },
    {
      "bufferView": 3,
      "byteOffset": 1048544,
      "componentType": 5126,
      "count": 65532,
      "max": [
        0.99967533349990845,
        0.99999052286148071,
        0.99975335597991943,
        1
      ],
      "min": [
        -0.99975639581680298,
        -0.99997830390930176,
        -0.99994808435440063,
        -1
      ],
      "type": "VEC4"
    },
    {
      "bufferView": 1,
      "byteOffset": 524272,
      "componentType": 5126,
      "count": 65532,
      "max": [
        0.99926799535751343,
        0.99889802932739258
      ],
      "min": [
        0.00073199998587369919,
        0.0007350000087171793
      ],
      "type": "VEC2"
    },
    {
      "bufferView": 0,
      "byteOffset": 1445988,
      "componentType": 5125,
      "count": 355089,
      "max": [
        65531
      ],
      "min": [
        0
      ],
      "type": "SCALAR"
    },
    {
      "bufferView": 2,
      "byteOffset": 3145584,
      "componentType": 5126,
      "count": 65532,
      "max": [
        14.117031097412109,
        -13.427366256713867,
        -39.19488525390625
      ],
      "min": [
        -2.1192278861999512,
        -52.994865417480469,
        -53.370258331298828
      ],
      "type": "VEC3"
    },
    {
      "bufferView": 2,
      "byteOffset": 3931968,
      "componentType": 5126,
      "count": 65532,
      "max": [
        0.99999833106994629,
        0.99972599744796753,
        1
      ],
      "min": [
        -0.99813097715377808,
        -0.99989676475524902,
        -0.99994301795959473
      ],
      "type": "VEC3"
    },
    {
      "bufferView": 3,
      "byteOffset": 2097056,
      "componentType": 5126,
      "count": 65532,
      "max": [
        0.99988800287246704,
        0.99999421834945679,
        0.99976927042007446,
        1
      ],
      "min": [
        -0.99937057495117188,
        -0.99997645616531372,
        -0.99979543685913086,
        -1
      ],
      "type": "VEC4"
    },
    {
      "bufferView": 1,
      "byteOffset": 1048528,
      "componentType": 5126,
      "count": 65532,
      "max": [
        0.9978029727935791,
        0.99730598926544189
      ],
      "min": [
        0.00073199998587369919,
        0.049479000270366669
      ],
      "type": "VEC2"
    },
    {
      "bufferView": 0,
      "byteOffset": 2866344,
      "componentType": 5125,
      "count": 351486,
      "max": [
        65531
      ],
      "min": [
        0
      ],
      "type": "SCALAR"
    },
    {
      "bufferView": 2,
      "byteOffset": 4718352,
      "componentType": 5126,
      "count": 65532,
      "max": [
        14.118298530578613,
        -13.377660751342773,
        -43.605972290039062
      ],
      "min": [
        -20.18449592590332,
        -65.52838134765625,
        -53.694660186767578
      ],
      "type": "VEC3"
    },
    {
      "bufferView": 2,
      "byteOffset": 5504736,
      "componentType": 5126,
      "count": 65532,
      "max": [
        0.99998700618743896,
        0.99944639205932617,
        1
      ],
      "min": [
        -0.99997878074645996,
        -0.99994677305221558,
        -0.99985265731811523
      ],
      "type": "VEC3"
    },
    {
      "bufferView": 3,
      "byteOffset": 3145568,
      "componentType": 5126,
      "count": 65532,
      "max": [
        0.99802768230438232,
        0.99972277879714966,
        0.99996250867843628,
        1
      ],
      "min": [
        -0.99922031164169312,
        -0.98920923471450806,
        -0.9986756443977356,
        -1
      ],
      "type": "VEC4"
    },
    {
      "bufferView": 1,
      "byteOffset": 1572784,
      "componentType": 5126,
      "count": 65532,
      "max": [
        0.99926799535751343,
        0.99840801954269409
      ],
      "min": [
        0.00073199998587369919,
        0.0007350000087171793
      ],
      "type": "VEC2"
    },
    {
      "bufferView": 0,
      "byteOffset": 4272288,
      "componentType": 5125,
      "count": 354798,
      "max": [
        65531
      ],
      "min": [
        0
      ],
      "type": "SCALAR"
    },
    {
      "bufferView": 2,
      "byteOffset": 6291120,
      "componentType": 5126,
      "count": 65532,
      "max": [
        11.466053009033203,
        -18.546222686767578,
        -43.90130615234375
      ],
      "min": [
        -18.617511749267578,
        -65.5389404296875,
        -53.462387084960938
      ],
      "type": "VEC3"
    },
    {
      "bufferView": 2,
      "byteOffset": 7077504,
      "componentType": 5126,
      "count": 65532,
      "max": [
        0.99960935115814209,
        0.99943673610687256,
        1
      ],
      "min": [
        -0.99999099969863892,
        -0.99993813037872314,
        -0.9999958872795105
      ],
      "type": "VEC3"
    },
    {
      "bufferView": 3,
      "byteOffset": 4194080,
      "componentType": 5126,
      "count": 65532,
      "max": [
        0.99724096059799194,
        0.99997544288635254,
        0.99988734722137451,
        1
      ],
      "min": [
        -0.9999271035194397,
        -0.99908769130706787,
        -0.9998895525932312,
        -1
      ],
      "type": "VEC4"
    },
    {
      "bufferView": 1,
      "byteOffset": 2097040,
      "componentType": 5126,
      "count": 65532,
      "max": [
        0.99926799535751343,
        0.99926501512527466
      ],
      "min": [
        0.00073199998587369919,
        0.0035520000383257866
      ],
      "type": "VEC2"
    },
    {
      "bufferView": 0,
      "byteOffset": 5691480,
      "componentType": 5125,
      "count": 355716,
      "max": [
        65531
      ],
      "min": [
        0
      ],
      "type": "SCALAR"
    },
    {
      "bufferView": 2,
      "byteOffset": 7863888,
      "componentType": 5126,
      "count": 65532,
      "max": [
        14.101367950439453,
        -13.408143997192383,
        -43.875530242919922
      ],
      "min": [
        -17.701492309570312,
        -45.617015838623047,
        -53.579524993896484
      ],
      "type": "VEC3"
    },
    {
      "bufferView": 2,
      "byteOffset": 8650272,
      "componentType": 5126,
      "count": 65532,
      "max": [
        0.99988263845443726,
        0.99999797344207764,
        1
      ],
      "min": [
        -0.99999654293060303,
        -0.98146766424179077,
        -0.99973046779632568
      ],
      "type": "VEC3"
    },
    {
      "bufferView": 3,
      "byteOffset": 5242592,
      "componentType": 5126,
      "count": 65532,
      "max": [
        0.99986660480499268,
        0.99999874830245972,
        0.99986594915390015,
        1
      ],
      "min": [
        -0.99998056888580322,
        -0.99868232011795044,
        -0.99960410594940186,
        -1
      ],
      "type": "VEC4"
    },
    {
      "bufferView": 1,
      "byteOffset": 2621296,
      "componentType": 5126,
      "count": 65532,
      "max": [
        0.99926799535751343,
        0.99314099550247192
      ],
      "min": [
        0.00073199998587369919,
        0.0007350000087171793
      ],
      "type": "VEC2"
    },
    {
      "bufferView": 0,
      "byteOffset": 7114344,
      "componentType": 5125,
      "count": 361194,
      "max": [
        65531
      ],
      "min": [
        0
      ],
      "type": "SCALAR"
    },
    {
      "bufferView": 2,
      "byteOffset": 9436656,
      "componentType": 5126,
      "count": 65532,
      "max": [
        13.35081672668457,
        -13.392795562744141,
        -43.940711975097656
      ],
      "min": [
        -20.201488494873047,
        -60.726375579833984,
        -53.710975646972656
      ],
      "type": "VEC3"
    },
    {
      "bufferView": 2,
      "byteOffset": 10223040,
      "componentType": 5126,
      "count": 65532,
      "max": [
        0.99999165534973145,
        0.99998277425765991,
        1
      ],
      "min": [
        -0.99996298551559448,
        -0.99951523542404175,
        -0.99991375207901001
      ],
      "type": "VEC3"
    },
    {
      "bufferView": 3,
      "byteOffset": 6291104,
      "componentType": 5126,
      "count": 65532,
      "max": [
        0.99982130527496338,
        0.99999010562896729,
        0.9997859001159668,
        1
      ],
      "min": [
        -0.99931687116622925,
        -0.99963951110839844,
        -0.999988853931427,
        -1
      ],
      "type": "VEC4"
    },
    {
      "bufferView": 1,
      "byteOffset": 3145552,
      "componentType": 5126,
      "count": 65532,
      "max": [
        0.9991459846496582,
        0.99363100528717041
      ],
      "min": [
        0.00073199998587369919,
        0.082547001540660858
      ],
      "type": "VEC2"
    },
    {
      "bufferView": 0,
      "byteOffset": 8559120,
      "componentType": 5125,
      "count": 352965,
      "max": [
        65531
      ],
      "min": [
        0
      ],
      "type": "SCALAR"
    },
    {
      "bufferView": 2,
      "byteOffset": 11009424,
      "componentType": 5126,
      "count": 22700,
      "max": [
        14.085161209106445,
        -17.965763092041016,
        -43.738616943359375
      ],
      "min": [
        -20.186738967895508,
        -53.313156127929688,
        -53.595859527587891
      ],
      "type": "VEC3"
    },
    {
      "bufferView": 2,
      "byteOffset": 11281824,
      "componentType": 5126,
      "count": 22700,
      "max": [
        0.99996376037597656,
        0.94279575347900391,
        0.9999997615814209
      ],
      "min": [
        -0.93501299619674683,
        -0.89312011003494263,
        -0.99498313665390015
      ],
      "type": "VEC3"
    },
    {
      "bufferView": 3,
      "byteOffset": 7339616,
      "componentType": 5126,
      "count": 22700,
      "max": [
        0.98601424694061279,
        0.99999493360519409,
        0.62695854902267456,
        1
      ],
      "min": [
        -0.98054426908493042,
        -0.97342813014984131,
        -0.99903947114944458,
        1
      ],
      "type": "VEC4"
    },
    {
      "bufferView": 1,
      "byteOffset": 3669808,
      "componentType": 5126,
      "count": 22700,
      "max": [
        0.97973597049713135,
        0.97709697484970093
      ],
      "min": [
        0.00073199998587369919,
        0.10949199646711349
      ],
      "type": "VEC2"
    },
    {
      "bufferView": 0,
      "byteOffset": 9970980,
      "componentType": 5125,
      "count": 123858,
      "max": [
        22699
      ],
      "min": [
        0
      ],
      "type": "SCALAR"
    }
  ],
  "asset": {
    "extras": {
      "author": "vrchris (https://sketchfab.com/vrchris)",
      "license": "CC-BY-4.0 (http://creativecommons.org/licenses/by/4.0/)",
      "source": "https://sketchfab.com/models/37a12cf05b604bba8f06706bb3cd9b02",
      "title": "BMW Z3"
    },
    "generator": "Sketchfab-3.19.8",
    "version": "2.0"
  },
  "bufferViews": [
    {
      "buffer": 0,
      "byteLength": 10466412,
      "byteOffset": 0,
      "name": "floatBufferViews",
      "target": 34963
    },
    {
      "buffer": 0,
      "byteLength": 3851408,
      "byteOffset": 10466412,
      "byteStride": 8,
      "name": "floatBufferViews",
      "target": 34962
    },
    {
      "buffer": 0,
      "byteLength": 11554224,
      "byteOffset": 14317820,
      "byteStride": 12,
      "name": "floatBufferViews",
      "target": 34962
    },
    {
      "buffer": 0,
      "byteLength": 7702816,
      "byteOffset": 25872044,
      "byteStride": 16,
      "name": "floatBufferViews",
      "target": 34962
    }
  ],
  "buffers": [
    {
      "byteLength": 33574860,
      "uri": "scene.bin"
    }
  ],
  "extensionsUsed": [
    "KHR_materials_unlit"
  ],
  "images": [
    {
      "uri": "textures/Material_0_baseColor.jpeg"
    }
  ],
  "materials": [
    {
      "doubleSided": false,
      "emissiveFactor": [
        0,
        0,
        0
      ],
      "extensions": {
        "KHR_materials_unlit": {}
      },
      "name": "Material_0",
      "pbrMetallicRoughness": {
        "baseColorFactor": [
          1,
          1,
          1,
          1
        ],
        "baseColorTexture": {
          "index": 0,
          "texCoord": 0
        },
        "metallicFactor": 0,
        "roughnessFactor": 1
      }
    }
  ],
  "meshes": [
    {
      "primitives": [
        {
          "attributes": {
            "NORMAL": 1,
            "POSITION": 0,
            "TANGENT": 2,
            "TEXCOORD_0": 3
          },
          "indices": 4,
          "material": 0,
          "mode": 4
        }
      ]
    },
    {
      "primitives": [
        {
          "attributes": {
            "NORMAL": 6,
            "POSITION": 5,
            "TANGENT": 7,
            "TEXCOORD_0": 8
          },
          "indices": 9,
          "material": 0,
          "mode": 4
        }
      ]
    },
    {
      "primitives": [
        {
          "attributes": {
            "NORMAL": 11,
            "POSITION": 10,
            "TANGENT": 12,
            "TEXCOORD_0": 13
          },
          "indices": 14,
          "material": 0,
          "mode": 4
        }
      ]
    },
    {
      "primitives": [
        {
          "attributes": {
            "NORMAL": 16,
            "POSITION": 15,
            "TANGENT": 17,
            "TEXCOORD_0": 18
          },
          "indices": 19,
          "material": 0,
          "mode": 4
        }
      ]
    },
    {
      "primitives": [
        {
          "attributes": {
            "NORMAL": 21,
            "POSITION": 20,
            "TANGENT": 22,
            "TEXCOORD_0": 23
          },
          "indices": 24,
          "material": 0,
          "mode": 4
        }
      ]
    },
    {
      "primitives": [
        {
          "attributes": {
            "NORMAL": 26,
            "POSITION": 25,
            "TANGENT": 27,
            "TEXCOORD_0": 28
          },
          "indices": 29,
          "material": 0,
          "mode": 4
        }
      ]
    },
    {
      "primitives": [
        {
          "attributes": {
            "NORMAL": 31,
            "POSITION": 30,
            "TANGENT": 32,
            "TEXCOORD_0": 33
          },
          "indices": 34,
          "material": 0,
          "mode": 4
        }
      ]
    },
    {
      "primitives": [
        {
          "attributes": {
            "NORMAL": 36,
            "POSITION": 35,
            "TANGENT": 37,
            "TEXCOORD_0": 38
          },
          "indices": 39,
          "material": 0,
          "mode": 4
        }
      ]
    }
  ],
  "nodes": [
    {
      "children": [
        1
      ],
      "name": "RootNode (gltf orientation matrix)",
      "rotation": [
        -0.70710678118654746,
        -0,
        -0,
        0.70710678118654757
      ]
    },
    {
      "children": [
        2
      ],
      "name": "RootNode (model correction matrix)"
    },
    {
      "children": [
        3,
        4,
        5,
        6,
        7,
        8,
        9,
        10
      ],
      "name": "BMWZ3.obj.cleaner.materialmerger.gles"
    },
    {
      "mesh": 0,
      "name": ""
    },
    {
      "mesh": 1,
      "name": ""
    },
    {
      "mesh": 2,
      "name": ""
    },
    {
      "mesh": 3,
      "name": ""
    },
    {
      "mesh": 4,
      "name": ""
    },
    {
      "mesh": 5,
      "name": ""
    },
    {
      "mesh": 6,
      "name": ""
    },
    {
      "mesh": 7,
      "name": ""
    }
  ],
  "samplers": [
    {
      "magFilter": 9729,
      "minFilter": 9987,
      "wrapS": 10497,
      "wrapT": 10497
    }
  ],
  "scene": 0,
  "scenes": [
    {
      "name": "OSG_Scene",
      "nodes": [
        0
      ]
    }
  ],
  "textures": [
    {
      "sampler": 0,
      "source": 0
    }
  ]
}

